<svg width="37" height="37" viewBox="0 0 37 37" fill="none" xmlns="http://www.w3.org/2000/svg">
<path d="M7.95996 5.53467H28.96C30.3338 5.53467 31.46 6.66081 31.46 8.03467V29.0347C31.46 30.4085 30.3338 31.5347 28.96 31.5347H7.95996C6.5861 31.5347 5.45996 30.4085 5.45996 29.0347V8.03467C5.45996 6.66081 6.5861 5.53467 7.95996 5.53467ZM7.45996 28.5171L8.31055 27.6812C10.9205 25.1147 14.5009 23.5347 18.46 23.5347C22.419 23.5347 25.9994 25.1147 28.6094 27.6812L29.46 28.5171V7.53467H7.45996V28.5171ZM18.46 10.0347C21.0788 10.0347 23.21 12.1658 23.21 14.7847C23.21 17.4035 21.0788 19.5347 18.46 19.5347C15.8411 19.5347 13.71 17.4035 13.71 14.7847C13.71 12.1658 15.8411 10.0347 18.46 10.0347ZM18.46 12.0347C16.9388 12.0347 15.71 13.2635 15.71 14.7847C15.71 16.3058 16.9388 17.5347 18.46 17.5347C19.9811 17.5347 21.21 16.3058 21.21 14.7847C21.21 13.2635 19.9811 12.0347 18.46 12.0347ZM26.46 28.4351L26.2734 28.2847C24.0553 26.5039 21.3347 25.5347 18.46 25.5347C15.5853 25.5347 12.8646 26.5039 10.6465 28.2847L10.46 28.4351V29.5347H26.46V28.4351Z" fill="black" stroke="black"/>
</svg>
