<svg width="37" height="37" viewBox="0 0 37 37" fill="none" xmlns="http://www.w3.org/2000/svg">
<g clip-path="url(#clip0_14_131)">
<path d="M28.96 5.03467H7.95996C6.30996 5.03467 4.95996 6.38467 4.95996 8.03467V29.0347C4.95996 30.6847 6.30996 32.0347 7.95996 32.0347H28.96C30.61 32.0347 31.96 30.6847 31.96 29.0347V8.03467C31.96 6.38467 30.61 5.03467 28.96 5.03467ZM25.96 29.0347H10.96V28.6747C13.09 26.9647 15.7 26.0347 18.46 26.0347C21.22 26.0347 23.83 26.9647 25.96 28.6747V29.0347ZM28.96 27.3247C26.26 24.6697 22.555 23.0347 18.46 23.0347C14.365 23.0347 10.66 24.6697 7.95996 27.3247V8.03467H28.96V27.3247ZM18.46 20.0347C21.355 20.0347 23.71 17.6797 23.71 14.7847C23.71 11.8897 21.355 9.53467 18.46 9.53467C15.565 9.53467 13.21 11.8897 13.21 14.7847C13.21 17.6797 15.565 20.0347 18.46 20.0347ZM18.46 12.5347C19.705 12.5347 20.71 13.5397 20.71 14.7847C20.71 16.0297 19.705 17.0347 18.46 17.0347C17.215 17.0347 16.21 16.0297 16.21 14.7847C16.21 13.5397 17.215 12.5347 18.46 12.5347Z" fill="black"/>
</g>
<defs>
<clipPath id="clip0_14_131">
<rect width="36" height="36" fill="white" transform="translate(0.459961 0.534668)"/>
</clipPath>
</defs>
</svg>
