<svg width="36" height="36" viewBox="0 0 36 36" fill="none" xmlns="http://www.w3.org/2000/svg">
<path d="M18 3.22498C18.2 3.22498 18.3815 3.23748 18.5445 3.26248C18.7075 3.28748 18.876 3.33748 19.05 3.41248L28.05 6.78748C28.625 7.01248 29.094 7.37497 29.457 7.87497C29.82 8.37497 30.001 8.93747 30 9.56247V14.25C30 14.675 29.8565 15.0315 29.5695 15.3195C29.2825 15.6075 28.926 15.751 28.5 15.75C28.074 15.749 27.718 15.605 27.432 15.318C27.146 15.031 27.002 14.675 27 14.25V9.59998L18 6.22498L9 9.59998V16.65C9 17.9 9.1815 19.15 9.5445 20.4C9.9075 21.65 10.4075 22.8375 11.0445 23.9625C11.6815 25.0875 12.4565 26.1 13.3695 27C14.2825 27.9 15.276 28.6375 16.35 29.2125C16.725 29.4125 16.994 29.7 17.157 30.075C17.32 30.45 17.326 30.825 17.175 31.2C17 31.6 16.719 31.875 16.332 32.025C15.945 32.175 15.5635 32.15 15.1875 31.95C12.3625 30.55 10.125 28.4375 8.475 25.6125C6.825 22.7875 6 19.8 6 16.65V9.56247C6 8.93747 6.1815 8.37497 6.5445 7.87497C6.9075 7.37497 7.376 7.01248 7.95 6.78748L16.95 3.41248C17.125 3.33748 17.3 3.28748 17.475 3.26248C17.65 3.23748 17.825 3.22498 18 3.22498ZM25.5 33C23.425 33 21.6565 32.2685 20.1945 30.8055C18.7325 29.3425 18.001 27.574 18 25.5C17.999 23.426 18.7305 21.6575 20.1945 20.1945C21.6585 18.7315 23.427 18 25.5 18C27.573 18 29.342 18.7315 30.807 20.1945C32.272 21.6575 33.003 23.426 33 25.5C32.997 27.574 32.2655 29.343 30.8055 30.807C29.3455 32.271 27.577 33.002 25.5 33ZM25.5 25.5C26.125 25.5 26.6565 25.2815 27.0945 24.8445C27.5325 24.4075 27.751 23.876 27.75 23.25C27.749 22.624 27.5305 22.093 27.0945 21.657C26.6585 21.221 26.127 21.002 25.5 21C24.873 20.998 24.342 21.217 23.907 21.657C23.472 22.097 23.253 22.628 23.25 23.25C23.247 23.872 23.466 24.4035 23.907 24.8445C24.348 25.2855 24.879 25.504 25.5 25.5ZM25.5 30C26.125 30 26.7125 29.881 27.2625 29.643C27.8125 29.405 28.3 29.0615 28.725 28.6125C28.85 28.4625 28.9 28.294 28.875 28.107C28.85 27.92 28.7375 27.776 28.5375 27.675C28.0625 27.45 27.569 27.2815 27.057 27.1695C26.545 27.0575 26.026 27.001 25.5 27C24.974 26.999 24.4555 27.0555 23.9445 27.1695C23.4335 27.2835 22.9395 27.452 22.4625 27.675C22.2625 27.775 22.15 27.919 22.125 28.107C22.1 28.295 22.15 28.4635 22.275 28.6125C22.7 29.0625 23.1875 29.4065 23.7375 29.6445C24.2875 29.8825 24.875 30.001 25.5 30Z" fill="black"/>
</svg>
