<svg width="32" height="32" viewBox="0 0 32 32" fill="none" xmlns="http://www.w3.org/2000/svg">
<g clip-path="url(#clip0_340_1199)">
<mask id="mask0_340_1199" style="mask-type:alpha" maskUnits="userSpaceOnUse" x="0" y="0" width="32" height="32">
<circle cx="16" cy="16" r="16" fill="#FFFAFA"/>
</mask>
<g mask="url(#mask0_340_1199)">
<circle cx="21.0001" cy="10.1686" r="5" fill="#FFE4C4"/>
<path d="M16.0001 8.8208L30.9587 21.9645H1.04141L16.0001 8.8208Z" fill="#808080"/>
<path d="M16 8.8208L21.4931 13.6226L18.872 13.0646L18.3374 15.4312L16.3091 13.0646L12.5813 17.4116V13.6226L9.9668 14.1219L16 8.8208Z" fill="#D3D3D3"/>
<path d="M21.8602 14.0089L43.3145 32.2533H0.405962L21.8602 14.0089Z" fill="#808080"/>
<path d="M21.8601 14.0089L28.8773 19.8996L25.2125 17.7796L24.5385 20.6742L22.1375 18.065L18.3041 22.8349V18.3911L13.2071 21.3672L21.8601 14.0089Z" fill="#D3D3D3"/>
<path d="M5.27368 15.1792L23.6667 31.9632H-13.1193L5.27368 15.1792Z" fill="#808080"/>
<path d="M5.27353 15.1792L11.2895 20.5984L8.1476 18.6481L7.56978 21.3109L5.51136 18.9106L2.22496 23.2987V19.2107L-2.14478 21.9485L5.27353 15.1792Z" fill="#D3D3D3"/>
</g>
</g>
<defs>
<clipPath id="clip0_340_1199">
<rect width="32" height="32" fill="white"/>
</clipPath>
</defs>
</svg>
