<svg width="36" height="37" viewBox="0 0 36 37" fill="none" xmlns="http://www.w3.org/2000/svg">
<g clip-path="url(#clip0_35_131)">
<path d="M24.75 5.03467C22.14 5.03467 19.635 6.24967 18 8.16967C16.365 6.24967 13.86 5.03467 11.25 5.03467C6.63 5.03467 3 8.66467 3 13.2847C3 18.9547 8.1 23.5747 15.825 30.5947L18 32.5597L20.175 30.5797C27.9 23.5747 33 18.9547 33 13.2847C33 8.66467 29.37 5.03467 24.75 5.03467ZM18.15 28.3597L18 28.5097L17.85 28.3597C10.71 21.8947 6 17.6197 6 13.2847C6 10.2847 8.25 8.03467 11.25 8.03467C13.56 8.03467 15.81 9.51967 16.605 11.5747H19.41C20.19 9.51967 22.44 8.03467 24.75 8.03467C27.75 8.03467 30 10.2847 30 13.2847C30 17.6197 25.29 21.8947 18.15 28.3597Z" fill="black"/>
</g>
<defs>
<clipPath id="clip0_35_131">
<rect width="36" height="36" fill="white" transform="translate(0 0.534668)"/>
</clipPath>
</defs>
</svg>
