<svg width="30" height="30" viewBox="0 0 30 30" fill="none" xmlns="http://www.w3.org/2000/svg">
<path d="M15 0C23.2845 0 30 6.7155 30 15C30 23.2845 23.2845 30 15 30C6.7155 30 0 23.2845 0 15C0 6.7155 6.7155 0 15 0ZM15 3C11.8174 3 8.76515 4.26428 6.51472 6.51472C4.26428 8.76515 3 11.8174 3 15C3 18.1826 4.26428 21.2348 6.51472 23.4853C8.76515 25.7357 11.8174 27 15 27C18.1826 27 21.2348 25.7357 23.4853 23.4853C25.7357 21.2348 27 18.1826 27 15C27 11.8174 25.7357 8.76515 23.4853 6.51472C21.2348 4.26428 18.1826 3 15 3ZM15 21C15.3978 21 15.7794 21.158 16.0607 21.4393C16.342 21.7206 16.5 22.1022 16.5 22.5C16.5 22.8978 16.342 23.2794 16.0607 23.5607C15.7794 23.842 15.3978 24 15 24C14.6022 24 14.2206 23.842 13.9393 23.5607C13.658 23.2794 13.5 22.8978 13.5 22.5C13.5 22.1022 13.658 21.7206 13.9393 21.4393C14.2206 21.158 14.6022 21 15 21ZM15 6.75C16.2634 6.75004 17.4874 7.19003 18.4617 7.9944C19.436 8.79877 20.0997 9.9173 20.339 11.1579C20.5782 12.3984 20.378 13.6836 19.7727 14.7926C19.1674 15.9016 18.1948 16.7651 17.022 17.235C16.8483 17.2989 16.6917 17.4021 16.5645 17.5365C16.4985 17.6115 16.488 17.7075 16.4895 17.8065L16.5 18C16.4996 18.3823 16.3532 18.75 16.0907 19.0281C15.8283 19.3061 15.4696 19.4734 15.0879 19.4958C14.7062 19.5182 14.3304 19.394 14.0373 19.1486C13.7441 18.9032 13.5557 18.5551 13.5105 18.1755L13.5 18V17.625C13.5 15.8955 14.895 14.8575 15.906 14.451C16.3175 14.2867 16.6764 14.0134 16.9443 13.6605C17.2121 13.3076 17.3788 12.8883 17.4264 12.4478C17.474 12.0073 17.4007 11.5622 17.2143 11.1602C17.028 10.7582 16.7357 10.4146 16.3688 10.1662C16.0019 9.91783 15.5743 9.77408 15.1319 9.7504C14.6894 9.72672 14.2489 9.82401 13.8576 10.0318C13.4663 10.2396 13.139 10.5501 12.9108 10.9299C12.6826 11.3097 12.5622 11.7444 12.5625 12.1875C12.5625 12.5853 12.4045 12.9669 12.1232 13.2482C11.8419 13.5295 11.4603 13.6875 11.0625 13.6875C10.6647 13.6875 10.2831 13.5295 10.0018 13.2482C9.72054 12.9669 9.5625 12.5853 9.5625 12.1875C9.5625 10.7454 10.1354 9.36234 11.1551 8.34261C12.1748 7.32288 13.5579 6.75 15 6.75Z" fill="black"/>
</svg>
