<svg width="36" height="37" viewBox="0 0 36 37" fill="none" xmlns="http://www.w3.org/2000/svg">
<g clip-path="url(#clip0_14_118)">
<path d="M33 14.0347H25.815L19.245 4.1947C18.96 3.7747 18.48 3.5647 18 3.5647C17.52 3.5647 17.04 3.7747 16.755 4.2097L10.185 14.0347H3C2.175 14.0347 1.5 14.7097 1.5 15.5347C1.5 15.6697 1.515 15.8047 1.56 15.9397L5.37 29.8447C5.715 31.1047 6.87 32.0347 8.25 32.0347H27.75C29.13 32.0347 30.285 31.1047 30.645 29.8447L34.455 15.9397L34.5 15.5347C34.5 14.7097 33.825 14.0347 33 14.0347ZM18 7.7347L22.2 14.0347H13.8L18 7.7347ZM27.75 29.0347L8.265 29.0497L4.965 17.0347H31.05L27.75 29.0347ZM18 20.0347C16.35 20.0347 15 21.3847 15 23.0347C15 24.6847 16.35 26.0347 18 26.0347C19.65 26.0347 21 24.6847 21 23.0347C21 21.3847 19.65 20.0347 18 20.0347Z" fill="black"/>
</g>
<defs>
<clipPath id="clip0_14_118">
<rect width="36" height="36" fill="white" transform="translate(0 0.534668)"/>
</clipPath>
</defs>
</svg>
