<svg width="36" height="37" viewBox="0 0 36 37" fill="none" xmlns="http://www.w3.org/2000/svg">
<path d="M18 4.5647C18.1975 4.5647 18.3397 4.6487 18.4121 4.75024H18.4131L24.9834 14.5901L25.2803 15.0344H33C33.2627 15.0344 33.4803 15.2458 33.4961 15.5051L33.4697 15.7493L29.6836 29.5696C29.4416 30.4167 28.6667 31.0344 27.75 31.0344H8.25C7.38874 31.0344 6.6601 30.4913 6.38379 29.7346L6.33496 29.5803H6.33398L2.52441 15.675L2.51758 15.6497L2.50879 15.6233L2.5 15.5344C2.50015 15.2618 2.72738 15.0344 3 15.0344H10.7197L11.0166 14.5901L17.5859 4.76587L17.5918 4.75806C17.6637 4.6483 17.8021 4.5647 18 4.5647ZM4.00098 17.2991L7.30078 29.3147L7.50293 30.05H8.26562L27.751 30.0344H28.5127L28.7139 29.3L32.0146 17.3L32.3623 16.0344H3.65332L4.00098 17.2991ZM18 21.0344C19.0976 21.0344 19.9999 21.9368 20 23.0344C20 24.1321 19.0977 25.0344 18 25.0344C16.9023 25.0344 16 24.1321 16 23.0344C16.0001 21.9368 16.9024 21.0344 18 21.0344ZM17.168 7.17993L12.9678 13.4797L11.9316 15.0344H24.0684L23.0322 13.4797L18.832 7.17993L18 5.93188L17.168 7.17993Z" fill="black" stroke="black" stroke-width="2"/>
</svg>
