<svg xmlns="http://www.w3.org/2000/svg">

    

    <symbol id="icon-admin-panel" viewBox="0 0 36 36" fill="currentColor">
        <path d="M25.5 19.0004C27.3084 19.0004 28.8234 19.6263 30.1006 20.9017C31.377 22.1764 32.0026 23.6899 32 25.4984C31.9974 27.3091 31.3704 28.8247 30.0977 30.101C28.9058 31.296 27.5013 31.9206 25.8369 31.9926L25.501 32.0004H25.5C23.6894 32.0004 22.1751 31.3736 20.9014 30.099C19.6273 28.824 19.0009 27.3093 19 25.4994C18.9992 23.6903 19.6256 22.1766 20.9014 20.9017C22.1775 19.6265 23.6916 19.0004 25.5 19.0004ZM25.5029 20.0004C24.612 19.9976 23.8226 20.3202 23.1963 20.9535C22.5763 21.5806 22.2543 22.3635 22.25 23.2455C22.2458 24.135 22.5712 24.9221 23.2002 25.5511C23.4427 25.7936 23.7088 25.9904 23.9951 26.141C23.9056 26.1578 23.8157 26.1739 23.7266 26.1937C23.1444 26.3236 22.5814 26.5154 22.0391 26.7689L22.0156 26.7806C21.6345 26.9712 21.3039 27.2997 21.1758 27.767L21.1338 27.975C21.0707 28.4493 21.2086 28.8974 21.5088 29.2552L21.5273 29.2777L21.5479 29.2992C22.0629 29.8445 22.6622 30.2682 23.3408 30.5619C24.0215 30.8564 24.7445 31.0004 25.5 30.9994V31.0004C26.2555 31.0004 26.9786 30.8554 27.6592 30.5609C28.3372 30.2675 28.9362 29.8442 29.4512 29.3002L29.4727 29.2767L29.4932 29.2523C29.7531 28.9403 29.8928 28.5595 29.8809 28.1508L29.8662 27.974L29.8242 27.766C29.6958 27.2997 29.3655 26.9731 28.9883 26.7826L28.9766 26.7767L28.9658 26.7709L28.5537 26.5902C28.1381 26.4214 27.7101 26.2889 27.2705 26.1927C27.1816 26.1733 27.0922 26.1575 27.0029 26.141C27.2903 25.9909 27.5577 25.7947 27.8008 25.5521C28.4296 24.9247 28.7514 24.137 28.75 23.2484C28.7486 22.3623 28.4281 21.5759 27.8018 20.9496C27.1755 20.3234 26.389 20.0032 25.5029 20.0004ZM28 8.90662L18 5.15662L8 8.90662V16.6498C8 17.998 8.19576 19.3422 8.58398 20.6791C8.96848 22.003 9.49835 23.2625 10.1738 24.4554C10.8561 25.6603 11.6885 26.7467 12.668 27.7123C13.5233 28.5554 14.4492 29.2705 15.4463 29.8529L15.8779 30.0941L15.8799 30.0951C16.0639 30.1933 16.171 30.3148 16.2402 30.474C16.2956 30.6016 16.2955 30.6957 16.251 30.8129C16.1779 30.9728 16.0917 31.0452 15.9707 31.0922C15.8628 31.134 15.7843 31.1344 15.6572 31.0668L15.6445 31.0599L15.6318 31.0541L15.1426 30.8002C12.7289 29.4944 10.797 27.6043 9.33887 25.1078C7.77469 22.4297 7 19.6155 7 16.6498V9.56287C7 9.14631 7.11604 8.78938 7.35352 8.46228C7.60422 8.11696 7.91846 7.87425 8.31348 7.71912L17.3008 4.349L17.3223 4.34119L17.3438 4.33142C17.4442 4.28839 17.5346 4.264 17.6162 4.25232C17.6805 4.24314 17.7447 4.23638 17.8086 4.23181L18 4.22498C18.1594 4.22498 18.289 4.23547 18.3926 4.25134C18.4601 4.2617 18.5471 4.28422 18.6543 4.33044L18.6768 4.34021L18.6992 4.349L27.6855 7.71814V7.71912C28.0822 7.87434 28.3968 8.1171 28.6475 8.46228C28.855 8.7481 28.9702 9.05634 28.9951 9.40759L29 9.56091V14.2504C28.9999 14.4238 28.9522 14.5224 28.8613 14.6136C28.7723 14.703 28.6755 14.7508 28.502 14.7504C28.3261 14.7499 28.2291 14.7004 28.1406 14.6117C28.0729 14.5437 28.0282 14.471 28.0098 14.3646L28 14.2455V8.90662Z" fill="currentColor" stroke="currentColor"/>
    </symbol>
    <symbol id="icon-account" viewBox="0 0 37 37" fill="currentColor">
        <path d="M7.95996 5.53467H28.96C30.3338 5.53467 31.46 6.66081 31.46 8.03467V29.0347C31.46 30.4085 30.3338 31.5347 28.96 31.5347H7.95996C6.5861 31.5347 5.45996 30.4085 5.45996 29.0347V8.03467C5.45996 6.66081 6.5861 5.53467 7.95996 5.53467ZM7.45996 28.5171L8.31055 27.6812C10.9205 25.1147 14.5009 23.5347 18.46 23.5347C22.419 23.5347 25.9994 25.1147 28.6094 27.6812L29.46 28.5171V7.53467H7.45996V28.5171ZM18.46 10.0347C21.0788 10.0347 23.21 12.1658 23.21 14.7847C23.21 17.4035 21.0788 19.5347 18.46 19.5347C15.8411 19.5347 13.71 17.4035 13.71 14.7847C13.71 12.1658 15.8411 10.0347 18.46 10.0347ZM18.46 12.0347C16.9388 12.0347 15.71 13.2635 15.71 14.7847C15.71 16.3058 16.9388 17.5347 18.46 17.5347C19.9811 17.5347 21.21 16.3058 21.21 14.7847C21.21 13.2635 19.9811 12.0347 18.46 12.0347ZM26.46 28.4351L26.2734 28.2847C24.0553 26.5039 21.3347 25.5347 18.46 25.5347C15.5853 25.5347 12.8646 26.5039 10.6465 28.2847L10.46 28.4351V29.5347H26.46V28.4351Z" fill="currentColor" stroke="currentColor"/>
    </symbol>

    <symbol id="icon-answer" viewBox="0 0 30 30" fill="currentColor">
        <g clip-path="url(#clip0_58_488)">
            <path d="M10.5 13.5H24V16.5H10.5V13.5ZM24 7.5H6V10.5H24V7.5ZM30 3V30L24 24H3C2.20435 24 1.44129 23.6839 0.87868 23.1213C0.31607 22.5587 0 21.7956 0 21V3C0 1.35 1.35 0 3 0H27C27.7956 0 28.5587 0.31607 29.1213 0.87868C29.6839 1.44129 30 2.20435 30 3ZM27 3H3V21H25.245L27 22.755V3Z" fill="currentColor" stroke="currentColor"/>
        </g>
        <defs>
        <clipPath id="clip0_58_488">
            <rect width="30" height="30" fill="white"/>
        </clipPath>
        </defs>
    </symbol>

    <symbol id="icon-calendar" viewBox="0 0 25 25" fill="currentColor">
        <path d="M12.0806 13.6005H17.0806V18.6005H12.0806V13.6005ZM19.0806 4.60046H18.0806V2.60046H16.0806V4.60046H8.08057V2.60046H6.08057V4.60046H5.08057C3.98057 4.60046 3.08057 5.50046 3.08057 6.60046V20.6005C3.08057 21.7005 3.98057 22.6005 5.08057 22.6005H19.0806C20.1806 22.6005 21.0806 21.7005 21.0806 20.6005V6.60046C21.0806 5.50046 20.1806 4.60046 19.0806 4.60046ZM19.0806 6.60046V8.60046H5.08057V6.60046H19.0806ZM5.08057 20.6005V10.6005H19.0806V20.6005H5.08057Z" fill="currentColor" stroke="currentColor"/>
    </symbol>

    <symbol id="icon-favicon" viewBox="0 0 32 32" fill="currentColor">
        <g clip-path="url(#clip0_340_1199)">
        <mask id="mask0_340_1199" style="mask-type:alpha" maskUnits="userSpaceOnUse" x="0" y="0" width="32" height="32">
        <circle cx="16" cy="16" r="16" fill="#FFFAFA"/>
        </mask>
        <g mask="url(#mask0_340_1199)">
        <circle cx="21.0001" cy="10.1686" r="5" fill="#FFE4C4"/>
        <path d="M16.0001 8.8208L30.9587 21.9645H1.04141L16.0001 8.8208Z" fill="#808080"/>
        <path d="M16 8.8208L21.4931 13.6226L18.872 13.0646L18.3374 15.4312L16.3091 13.0646L12.5813 17.4116V13.6226L9.9668 14.1219L16 8.8208Z" fill="#D3D3D3"/>
        <path d="M21.8602 14.0089L43.3145 32.2533H0.405962L21.8602 14.0089Z" fill="#808080"/>
        <path d="M21.8601 14.0089L28.8773 19.8996L25.2125 17.7796L24.5385 20.6742L22.1375 18.065L18.3041 22.8349V18.3911L13.2071 21.3672L21.8601 14.0089Z" fill="#D3D3D3"/>
        <path d="M5.27368 15.1792L23.6667 31.9632H-13.1193L5.27368 15.1792Z" fill="#808080"/>
        <path d="M5.27353 15.1792L11.2895 20.5984L8.1476 18.6481L7.56978 21.3109L5.51136 18.9106L2.22496 23.2987V19.2107L-2.14478 21.9485L5.27353 15.1792Z" fill="#D3D3D3"/>
        </g>
        </g>
        <defs>
        <clipPath id="clip0_340_1199">
        <rect width="32" height="32" fill="white"/>
        </clipPath>
        </defs>
    </symbol>

    <symbol id="icon-favorite" viewBox="0 0 36 37" fill="currentColor">
        <path d="M24.75 6.03467C28.8177 6.03467 32 9.21695 32 13.2847C32 15.7912 30.8814 18.1436 28.71 20.7983C27.0728 22.7999 24.8963 24.9037 22.2725 27.3159L19.5029 29.8394L19.502 29.8403L17.9971 31.2095L16.4951 29.853C12.6132 26.3254 9.47279 23.4707 7.29004 20.8003C5.11844 18.1435 4 15.7912 4 13.2847C4 9.21695 7.18228 6.03467 11.25 6.03467C13.5571 6.03467 15.7869 7.11362 17.2383 8.81787L18 9.7124L18.7617 8.81787C20.2131 7.11362 22.4429 6.03467 24.75 6.03467ZM24.75 7.03467C22.2975 7.03467 19.8878 8.45487 18.7676 10.5747H17.2441C16.1139 8.45726 13.7056 7.03467 11.25 7.03467C7.69772 7.03467 5 9.73238 5 13.2847C5 15.8211 6.37648 18.2068 8.4873 20.6733C10.604 23.1466 13.6146 25.8739 17.1582 29.0825L17.293 29.2163L18 29.9243L18.707 29.2163L18.8408 29.0825C22.3846 25.8737 25.3959 23.1467 27.5127 20.6733C29.6235 18.2068 31 15.8211 31 13.2847C31 9.73238 28.3023 7.03467 24.75 7.03467Z" stroke="currentColor" stroke-width="2"/>
    </symbol>

    <symbol id="icon-arrow-down" viewBox="0 0 33 15" fill="currentColor">
        <path d="M16.96 13.4468C16.8288 13.4484 16.6988 13.4225 16.5782 13.3708C16.4577 13.3192 16.3493 13.2428 16.26 13.1468L7.25996 4.14676C6.85996 3.74676 6.85996 3.12676 7.25996 2.72676C7.65996 2.32676 8.27996 2.32676 8.67996 2.72676L16.98 11.0268L25.26 2.74676C25.66 2.34676 26.28 2.34676 26.68 2.74676C27.08 3.14676 27.08 3.76676 26.68 4.16676L17.68 13.1668C17.48 13.3668 17.22 13.4668 16.98 13.4668L16.96 13.4468Z" fill="currentColor" stroke="currentColor"/>
    </symbol>

    <symbol id="icon-login" viewBox="0 0 36 37" fill="currentColor">
        <path fill-rule="evenodd" clip-rule="evenodd" d="M21.621 17.2997L25.425 13.4957L23.304 11.3747L15.879 18.7997L23.304 26.2247L25.425 24.1037L21.621 20.2997H31.5V17.2997H21.621ZM19.5 5.29968H7.5C5.85 5.29968 4.5 6.64968 4.5 8.29968V29.2997C4.5 30.9497 5.85 32.2997 7.5 32.2997H19.5V29.2997H7.5V8.29968H19.5V5.29968Z" fill="currentColor" stroke="currentColor"/>
    </symbol>

    <symbol id="icon-question" viewBox="0 0 30 30" fill="currentColor">
        <path d="M15 0C23.2845 0 30 6.7155 30 15C30 23.2845 23.2845 30 15 30C6.7155 30 0 23.2845 0 15C0 6.7155 6.7155 0 15 0ZM15 3C11.8174 3 8.76515 4.26428 6.51472 6.51472C4.26428 8.76515 3 11.8174 3 15C3 18.1826 4.26428 21.2348 6.51472 23.4853C8.76515 25.7357 11.8174 27 15 27C18.1826 27 21.2348 25.7357 23.4853 23.4853C25.7357 21.2348 27 18.1826 27 15C27 11.8174 25.7357 8.76515 23.4853 6.51472C21.2348 4.26428 18.1826 3 15 3ZM15 21C15.3978 21 15.7794 21.158 16.0607 21.4393C16.342 21.7206 16.5 22.1022 16.5 22.5C16.5 22.8978 16.342 23.2794 16.0607 23.5607C15.7794 23.842 15.3978 24 15 24C14.6022 24 14.2206 23.842 13.9393 23.5607C13.658 23.2794 13.5 22.8978 13.5 22.5C13.5 22.1022 13.658 21.7206 13.9393 21.4393C14.2206 21.158 14.6022 21 15 21ZM15 6.75C16.2634 6.75004 17.4874 7.19003 18.4617 7.9944C19.436 8.79877 20.0997 9.9173 20.339 11.1579C20.5782 12.3984 20.378 13.6836 19.7727 14.7926C19.1674 15.9016 18.1948 16.7651 17.022 17.235C16.8483 17.2989 16.6917 17.4021 16.5645 17.5365C16.4985 17.6115 16.488 17.7075 16.4895 17.8065L16.5 18C16.4996 18.3823 16.3532 18.75 16.0907 19.0281C15.8283 19.3061 15.4696 19.4734 15.0879 19.4958C14.7062 19.5182 14.3304 19.394 14.0373 19.1486C13.7441 18.9032 13.5557 18.5551 13.5105 18.1755L13.5 18V17.625C13.5 15.8955 14.895 14.8575 15.906 14.451C16.3175 14.2867 16.6764 14.0134 16.9443 13.6605C17.2121 13.3076 17.3788 12.8883 17.4264 12.4478C17.474 12.0073 17.4007 11.5622 17.2143 11.1602C17.028 10.7582 16.7357 10.4146 16.3688 10.1662C16.0019 9.91783 15.5743 9.77408 15.1319 9.7504C14.6894 9.72672 14.2489 9.82401 13.8576 10.0318C13.4663 10.2396 13.139 10.5501 12.9108 10.9299C12.6826 11.3097 12.5622 11.7444 12.5625 12.1875C12.5625 12.5853 12.4045 12.9669 12.1232 13.2482C11.8419 13.5295 11.4603 13.6875 11.0625 13.6875C10.6647 13.6875 10.2831 13.5295 10.0018 13.2482C9.72054 12.9669 9.5625 12.5853 9.5625 12.1875C9.5625 10.7454 10.1354 9.36234 11.1551 8.34261C12.1748 7.32288 13.5579 6.75 15 6.75Z" fill="currentColor" stroke="currentColor"/>
    </symbol>

    <symbol id="icon-shop-cart" viewBox="0 0 36 37" fill="currentColor">
        <path d="M18 4.5647C18.1975 4.5647 18.3397 4.6487 18.4121 4.75024H18.4131L24.9834 14.5901L25.2803 15.0344H33C33.2627 15.0344 33.4803 15.2458 33.4961 15.5051L33.4697 15.7493L29.6836 29.5696C29.4416 30.4167 28.6667 31.0344 27.75 31.0344H8.25C7.38874 31.0344 6.6601 30.4913 6.38379 29.7346L6.33496 29.5803H6.33398L2.52441 15.675L2.51758 15.6497L2.50879 15.6233L2.5 15.5344C2.50015 15.2618 2.72738 15.0344 3 15.0344H10.7197L11.0166 14.5901L17.5859 4.76587L17.5918 4.75806C17.6637 4.6483 17.8021 4.5647 18 4.5647ZM4.00098 17.2991L7.30078 29.3147L7.50293 30.05H8.26562L27.751 30.0344H28.5127L28.7139 29.3L32.0146 17.3L32.3623 16.0344H3.65332L4.00098 17.2991ZM18 21.0344C19.0976 21.0344 19.9999 21.9368 20 23.0344C20 24.1321 19.0977 25.0344 18 25.0344C16.9023 25.0344 16 24.1321 16 23.0344C16.0001 21.9368 16.9024 21.0344 18 21.0344ZM17.168 7.17993L12.9678 13.4797L11.9316 15.0344H24.0684L23.0322 13.4797L18.832 7.17993L18 5.93188L17.168 7.17993Z" fill="black" stroke="black" stroke-width="2"/>
    </symbol>

    <symbol id="icon-trash" viewBox="0 0 37 37" fill="currentColor">
        <path d="M5 9.7063H32M29 9.7063V30.7063C29 31.5019 28.6839 32.265 28.1213 32.8276C27.5587 33.3902 26.7956 33.7063 26 33.7063H11C10.2044 33.7063 9.44129 33.3902 8.87868 32.8276C8.31607 32.265 8 31.5019 8 30.7063V9.7063M11 9.7063L14 3.7063H23L26 9.7063" fill="currentColor" stroke="currentColor" stroke-width="3" stroke-linecap="round" stroke-linejoin="round"/>
    </symbol>

</svg>