<svg xmlns="http://www.w3.org/2000/svg">

    <symbol id="icon-account" viewBox="0 0 37 37" fill="currentColor">
        <g clip-path="url(#clip0)">
        <path
            d="M28.96 5.03467H7.95996C6.30996 5.03467 4.95996 6.38467 4.95996 8.03467V29.0347C4.95996 30.6847 6.30996 32.0347 7.95996 32.0347H28.96C30.61 32.0347 31.96 30.6847 31.96 29.0347V8.03467C31.96 6.38467 30.61 5.03467 28.96 5.03467ZM25.96 29.0347H10.96V28.6747C13.09 26.9647 15.7 26.0347 18.46 26.0347C21.22 26.0347 23.83 26.9647 25.96 28.6747V29.0347ZM28.96 27.3247C26.26 24.6697 22.555 23.0347 18.46 23.0347C14.365 23.0347 10.66 24.6697 7.95996 27.3247V8.03467H28.96V27.3247ZM18.46 20.0347C21.355 20.0347 23.71 17.6797 23.71 14.7847C23.71 11.8897 21.355 9.53467 18.46 9.53467C15.565 9.53467 13.21 11.8897 13.21 14.7847C13.21 17.6797 15.565 20.0347 18.46 20.0347ZM18.46 12.5347C19.705 12.5347 20.71 13.5397 20.71 14.7847C20.71 16.0297 19.705 17.0347 18.46 17.0347C17.215 17.0347 16.21 16.0297 16.21 14.7847C16.21 13.5397 17.215 12.5347 18.46 12.5347Z"
        />
        </g>
        <defs>
        <clipPath id="clip0">
            <rect width="36" height="36" transform="translate(0.459961 0.534668)" />
        </clipPath>
        </defs>
    </symbol>

    <symbol id="icon-admin-panel" viewBox="0 0 36 36" fill="currentColor">
        <path d="M18 3.22498C18.2 3.22498 18.3815 3.23748 18.5445 3.26248C18.7075 3.28748 18.876 3.33748 19.05 3.41248L28.05 6.78748C28.625 7.01248 29.094 7.37498 29.457 7.87498C29.82 8.37498 30.001 8.93748 30 9.56248V14.25C30 14.675 29.8565 15.0315 29.5695 15.3195C29.2825 15.6075 28.926 15.751 28.5 15.75C28.074 15.749 27.718 15.605 27.432 15.318C27.146 15.031 27.002 14.675 27 14.25V9.59998L18 6.22498L9 9.59998V16.65C9 17.9 9.1815 19.15 9.5445 20.4C9.9075 21.65 10.4075 22.8375 11.0445 23.9625C11.6815 25.0875 12.4565 26.1 13.3695 27C14.2825 27.9 15.276 28.6375 16.35 29.2125C16.725 29.4125 16.994 29.7 17.157 30.075C17.32 30.45 17.326 30.825 17.175 31.2C17 31.6 16.719 31.875 16.332 32.025C15.945 32.175 15.5635 32.15 15.1875 31.95C12.3625 30.55 10.125 28.4375 8.475 25.6125C6.825 22.7875 6 19.8 6 16.65V9.56248C6 8.93748 6.1815 8.37498 6.5445 7.87498C6.9075 7.37498 7.376 7.01248 7.95 6.78748L16.95 3.41248C17.125 3.33748 17.3 3.28748 17.475 3.26248C17.65 3.23748 17.825 3.22498 18 3.22498ZM25.5 33C23.425 33 21.6565 32.2685 20.1945 30.8055C18.7325 29.3425 18.001 27.574 18 25.5C17.999 23.426 18.7305 21.6575 20.1945 20.1945C21.6585 18.7315 23.427 18 25.5 18C27.573 18 29.342 18.7315 30.807 20.1945C32.272 21.6575 33.003 23.426 33 25.5C32.997 27.574 32.2655 29.343 30.8055 30.807C29.3455 32.271 27.577 33.002 25.5 33ZM25.5 25.5C26.125 25.5 26.6565 25.2815 27.0945 24.8445C27.5325 24.4075 27.751 23.876 27.75 23.25C27.749 22.624 27.5305 22.093 27.0945 21.657C26.6585 21.221 26.127 21.002 25.5 21C24.873 20.998 24.342 21.217 23.907 21.657C23.472 22.097 23.253 22.628 23.25 23.25C23.247 23.872 23.466 24.4035 23.907 24.8445C24.348 25.2855 24.879 25.504 25.5 25.5ZM25.5 30C26.125 30 26.7125 29.881 27.2625 29.643C27.8125 29.405 28.3 29.0615 28.725 28.6125C28.85 28.4625 28.9 28.294 28.875 28.107C28.85 27.92 28.7375 27.776 28.5375 27.675C28.0625 27.45 27.569 27.2815 27.057 27.1695C26.545 27.0575 26.026 27.001 25.5 27C24.974 26.999 24.4555 27.0555 23.9445 27.1695C23.4335 27.2835 22.9395 27.452 22.4625 27.675C22.2625 27.775 22.15 27.919 22.125 28.107C22.1 28.295 22.15 28.4635 22.275 28.6125C22.7 29.0625 23.1875 29.4065 23.7375 29.6445C24.2875 29.8825 24.875 30.001 25.5 30Z" fill="black"/>
    </symbol>

    <symbol id="icon-answer" viewBox="0 0 30 30" fill="currentColor">
        <g clip-path="url(#clip0_58_488)">
        <path d="M10.5 13.5H24V16.5H10.5V13.5ZM24 7.5H6V10.5H24V7.5ZM30 3V30L24 24H3C2.20435 24 1.44129 23.6839 0.87868 23.1213C0.31607 22.5587 0 21.7956 0 21V3C0 1.35 1.35 0 3 0H27C27.7956 0 28.5587 0.31607 29.1213 0.87868C29.6839 1.44129 30 2.20435 30 3ZM27 3H3V21H25.245L27 22.755V3Z" fill="black"/>
        </g>
        <defs>
        <clipPath id="clip0_58_488">
        <rect width="30" height="30" fill="white"/>
        </clipPath>
        </defs>
    </symbol>

    <symbol id="icon-calendar" viewBox="0 0 25 25" fill="currentColor">
        <path d="M12.0806 13.6005H17.0806V18.6005H12.0806V13.6005ZM19.0806 4.60046H18.0806V2.60046H16.0806V4.60046H8.08057V2.60046H6.08057V4.60046H5.08057C3.98057 4.60046 3.08057 5.50046 3.08057 6.60046V20.6005C3.08057 21.7005 3.98057 22.6005 5.08057 22.6005H19.0806C20.1806 22.6005 21.0806 21.7005 21.0806 20.6005V6.60046C21.0806 5.50046 20.1806 4.60046 19.0806 4.60046ZM19.0806 6.60046V8.60046H5.08057V6.60046H19.0806ZM5.08057 20.6005V10.6005H19.0806V20.6005H5.08057Z" fill="#808080"/>
    </symbol>

    <symbol id="icon-favicon" viewBox="0 0 32 32" fill="currentColor">
        <g clip-path="url(#clip0_340_1199)">
        <mask id="mask0_340_1199" style="mask-type:alpha" maskUnits="userSpaceOnUse" x="0" y="0" width="32" height="32">
        <circle cx="16" cy="16" r="16" fill="#FFFAFA"/>
        </mask>
        <g mask="url(#mask0_340_1199)">
        <circle cx="21.0001" cy="10.1686" r="5" fill="#FFE4C4"/>
        <path d="M16.0001 8.8208L30.9587 21.9645H1.04141L16.0001 8.8208Z" fill="#808080"/>
        <path d="M16 8.8208L21.4931 13.6226L18.872 13.0646L18.3374 15.4312L16.3091 13.0646L12.5813 17.4116V13.6226L9.9668 14.1219L16 8.8208Z" fill="#D3D3D3"/>
        <path d="M21.8602 14.0089L43.3145 32.2533H0.405962L21.8602 14.0089Z" fill="#808080"/>
        <path d="M21.8601 14.0089L28.8773 19.8996L25.2125 17.7796L24.5385 20.6742L22.1375 18.065L18.3041 22.8349V18.3911L13.2071 21.3672L21.8601 14.0089Z" fill="#D3D3D3"/>
        <path d="M5.27368 15.1792L23.6667 31.9632H-13.1193L5.27368 15.1792Z" fill="#808080"/>
        <path d="M5.27353 15.1792L11.2895 20.5984L8.1476 18.6481L7.56978 21.3109L5.51136 18.9106L2.22496 23.2987V19.2107L-2.14478 21.9485L5.27353 15.1792Z" fill="#D3D3D3"/>
        </g>
        </g>
        <defs>
        <clipPath id="clip0_340_1199">
        <rect width="32" height="32" fill="white"/>
        </clipPath>
        </defs>
    </symbol>

    <symbol id="icon-favorite" viewBox="0 0 36 37" fill="currentColor">
        <g clip-path="url(#clip0_35_131)">
        <path d="M24.75 5.03467C22.14 5.03467 19.635 6.24967 18 8.16967C16.365 6.24967 13.86 5.03467 11.25 5.03467C6.63 5.03467 3 8.66467 3 13.2847C3 18.9547 8.1 23.5747 15.825 30.5947L18 32.5597L20.175 30.5797C27.9 23.5747 33 18.9547 33 13.2847C33 8.66467 29.37 5.03467 24.75 5.03467ZM18.15 28.3597L18 28.5097L17.85 28.3597C10.71 21.8947 6 17.6197 6 13.2847C6 10.2847 8.25 8.03467 11.25 8.03467C13.56 8.03467 15.81 9.51967 16.605 11.5747H19.41C20.19 9.51967 22.44 8.03467 24.75 8.03467C27.75 8.03467 30 10.2847 30 13.2847C30 17.6197 25.29 21.8947 18.15 28.3597Z" fill="black"/>
        </g>
        <defs>
        <clipPath id="clip0_35_131">
        <rect width="36" height="36" fill="white" transform="translate(0 0.534668)"/>
        </clipPath>
        </defs>
    </symbol>

    <symbol id="icon-arrow-down" viewBox="0 0 33 15" fill="currentColor">
        <path d="M16.96 13.4468C16.8288 13.4484 16.6988 13.4225 16.5782 13.3708C16.4577 13.3192 16.3493 13.2428 16.26 13.1468L7.25996 4.14676C6.85996 3.74676 6.85996 3.12676 7.25996 2.72676C7.65996 2.32676 8.27996 2.32676 8.67996 2.72676L16.98 11.0268L25.26 2.74676C25.66 2.34676 26.28 2.34676 26.68 2.74676C27.08 3.14676 27.08 3.76676 26.68 4.16676L17.68 13.1668C17.48 13.3668 17.22 13.4668 16.98 13.4668L16.96 13.4468Z" fill="black"/>
    </symbol>

    <symbol id="icon-login" viewBox="0 0 36 37" fill="currentColor">
        <path fill-rule="evenodd" clip-rule="evenodd" d="M21.621 17.2997L25.425 13.4957L23.304 11.3747L15.879 18.7997L23.304 26.2247L25.425 24.1037L21.621 20.2997H31.5V17.2997H21.621ZM19.5 5.29968H7.5C5.85 5.29968 4.5 6.64968 4.5 8.29968V29.2997C4.5 30.9497 5.85 32.2997 7.5 32.2997H19.5V29.2997H7.5V8.29968H19.5V5.29968Z" fill="black"/>
    </symbol>

    <symbol id="icon-question" viewBox="0 0 30 30" fill="currentColor">
        <path d="M15 0C23.2845 0 30 6.7155 30 15C30 23.2845 23.2845 30 15 30C6.7155 30 0 23.2845 0 15C0 6.7155 6.7155 0 15 0ZM15 3C11.8174 3 8.76515 4.26428 6.51472 6.51472C4.26428 8.76515 3 11.8174 3 15C3 18.1826 4.26428 21.2348 6.51472 23.4853C8.76515 25.7357 11.8174 27 15 27C18.1826 27 21.2348 25.7357 23.4853 23.4853C25.7357 21.2348 27 18.1826 27 15C27 11.8174 25.7357 8.76515 23.4853 6.51472C21.2348 4.26428 18.1826 3 15 3ZM15 21C15.3978 21 15.7794 21.158 16.0607 21.4393C16.342 21.7206 16.5 22.1022 16.5 22.5C16.5 22.8978 16.342 23.2794 16.0607 23.5607C15.7794 23.842 15.3978 24 15 24C14.6022 24 14.2206 23.842 13.9393 23.5607C13.658 23.2794 13.5 22.8978 13.5 22.5C13.5 22.1022 13.658 21.7206 13.9393 21.4393C14.2206 21.158 14.6022 21 15 21ZM15 6.75C16.2634 6.75004 17.4874 7.19003 18.4617 7.9944C19.436 8.79877 20.0997 9.9173 20.339 11.1579C20.5782 12.3984 20.378 13.6836 19.7727 14.7926C19.1674 15.9016 18.1948 16.7651 17.022 17.235C16.8483 17.2989 16.6917 17.4021 16.5645 17.5365C16.4985 17.6115 16.488 17.7075 16.4895 17.8065L16.5 18C16.4996 18.3823 16.3532 18.75 16.0907 19.0281C15.8283 19.3061 15.4696 19.4734 15.0879 19.4958C14.7062 19.5182 14.3304 19.394 14.0373 19.1486C13.7441 18.9032 13.5557 18.5551 13.5105 18.1755L13.5 18V17.625C13.5 15.8955 14.895 14.8575 15.906 14.451C16.3175 14.2867 16.6764 14.0134 16.9443 13.6605C17.2121 13.3076 17.3788 12.8883 17.4264 12.4478C17.474 12.0073 17.4007 11.5622 17.2143 11.1602C17.028 10.7582 16.7357 10.4146 16.3688 10.1662C16.0019 9.91783 15.5743 9.77408 15.1319 9.7504C14.6894 9.72672 14.2489 9.82401 13.8576 10.0318C13.4663 10.2396 13.139 10.5501 12.9108 10.9299C12.6826 11.3097 12.5622 11.7444 12.5625 12.1875C12.5625 12.5853 12.4045 12.9669 12.1232 13.2482C11.8419 13.5295 11.4603 13.6875 11.0625 13.6875C10.6647 13.6875 10.2831 13.5295 10.0018 13.2482C9.72054 12.9669 9.5625 12.5853 9.5625 12.1875C9.5625 10.7454 10.1354 9.36234 11.1551 8.34261C12.1748 7.32288 13.5579 6.75 15 6.75Z" fill="black"/>
    </symbol>

    <symbol id="icon-shop-cart" viewBox="0 0 36 37" fill="currentColor">
        <g clip-path="url(#clip0_14_118)">
        <path d="M33 14.0347H25.815L19.245 4.1947C18.96 3.7747 18.48 3.5647 18 3.5647C17.52 3.5647 17.04 3.7747 16.755 4.2097L10.185 14.0347H3C2.175 14.0347 1.5 14.7097 1.5 15.5347C1.5 15.6697 1.515 15.8047 1.56 15.9397L5.37 29.8447C5.715 31.1047 6.87 32.0347 8.25 32.0347H27.75C29.13 32.0347 30.285 31.1047 30.645 29.8447L34.455 15.9397L34.5 15.5347C34.5 14.7097 33.825 14.0347 33 14.0347ZM18 7.7347L22.2 14.0347H13.8L18 7.7347ZM27.75 29.0347L8.265 29.0497L4.965 17.0347H31.05L27.75 29.0347ZM18 20.0347C16.35 20.0347 15 21.3847 15 23.0347C15 24.6847 16.35 26.0347 18 26.0347C19.65 26.0347 21 24.6847 21 23.0347C21 21.3847 19.65 20.0347 18 20.0347Z" fill="black"/>
        </g>
        <defs>
        <clipPath id="clip0_14_118">
        <rect width="36" height="36" fill="white" transform="translate(0 0.534668)"/>
        </clipPath>
        </defs>
    </symbol>

    <symbol id="icon-trash" viewBox="0 0 37 37" fill="currentColor">
        <path d="M5 9.7063H32M29 9.7063V30.7063C29 31.5019 28.6839 32.265 28.1213 32.8276C27.5587 33.3902 26.7956 33.7063 26 33.7063H11C10.2044 33.7063 9.44129 33.3902 8.87868 32.8276C8.31607 32.265 8 31.5019 8 30.7063V9.7063M11 9.7063L14 3.7063H23L26 9.7063" stroke="black" stroke-width="3" stroke-linecap="round" stroke-linejoin="round"/>
    </symbol>

</svg>