<svg width="37" height="37" viewBox="0 0 37 37" fill="none" xmlns="http://www.w3.org/2000/svg">
<path d="M4.96582 9.53467H31.9658ZM28.9658 9.53467V30.5347C28.9658 31.3303 28.6497 32.0934 28.0871 32.656C27.5245 33.2186 26.7615 33.5347 25.9658 33.5347H10.9658C10.1702 33.5347 9.40711 33.2186 8.8445 32.656C8.28189 32.0934 7.96582 31.3303 7.96582 30.5347V9.53467M10.9658 9.53467L13.9658 3.53467H22.9658L25.9658 9.53467" fill="white"/>
<path d="M4.96582 9.53467H31.9658M28.9658 9.53467V30.5347C28.9658 31.3303 28.6497 32.0934 28.0871 32.656C27.5245 33.2186 26.7615 33.5347 25.9658 33.5347H10.9658C10.1702 33.5347 9.40711 33.2186 8.8445 32.656C8.28189 32.0934 7.96582 31.3303 7.96582 30.5347V9.53467M10.9658 9.53467L13.9658 3.53467H22.9658L25.9658 9.53467" stroke="black" stroke-width="3" stroke-linecap="round" stroke-linejoin="round"/>
</svg>
